<svg height="496pt" viewBox="-40 0 496 496" width="496pt" xmlns="http://www.w3.org/2000/svg"><path d="m237.414062 0h-58.828124c-34.28125 0-66.496094 16.769531-86.152344 44.855469-18.5625 26.519531-23.875 59.511719-14.578125 90.519531l34.144531 113.800781v126.824219c0 4.414062 3.574219 8 8 8h24v88c0 4.414062 3.574219 8 8 8h48v16h16v-16h48c4.425781 0 8-3.585938 8-8v-88h24c4.425781 0 8-3.585938 8-8v-126.824219l34.144531-113.800781c9.296875-31.007812 3.984375-64-14.578125-90.519531-19.664062-28.085938-51.871094-44.855469-86.152344-44.855469zm-3.878906 208h-17.535156v-48h8v-16h-32v16h8v48h-17.535156l-20.570313-96h92.203125zm-49.535156 16h48v16h-48zm104 32v24h-160v-24zm0 72h-20.6875l-32-32h52.6875zm-139.3125-32 32 32h-52.6875v-32zm54.625 32-32-32h41.375l32 32zm-43.3125 88h96v16h-96zm0 48v-16h96v16zm96-64h-96v-16h96zm-128-32v-24h160v24zm194.816406-237.214844-32.769531 109.214844h-42.046875v-23.160156l23.824219-111.160156c.503906-2.359376-.082031-4.832032-1.601563-6.703126-1.519531-1.886718-3.808594-2.976562-6.222656-2.976562h-112c-2.414062 0-4.703125 1.089844-6.214844 2.96875-1.519531 1.878906-2.113281 4.34375-1.601562 6.703125l23.816406 111.167969v23.160156h-42.046875l-32.769531-109.214844c-7.886719-26.296875-3.382813-54.265625 12.359375-76.753906 16.664062-23.816406 43.96875-38.03125 73.042969-38.03125h58.828124c29.074219 0 56.378907 14.214844 73.042969 38.023438 15.734375 22.488281 20.246094 50.464843 12.359375 76.761718zm0 0"/><path d="m362.34375 42.34375 32-32 11.3125 11.3125-32 32zm0 0"/><path d="m376 72h40v16h-40zm0 0"/><path d="m363.199219 118.398438 9.597656-12.792969 32 24-9.597656 12.792969zm0 0"/><path d="m10.34375 21.660156 11.316406-11.3125 32 32-11.316406 11.3125zm0 0"/><path d="m0 72h40v16h-40zm0 0"/><path d="m11.191406 129.597656 32.003906-23.992187 9.59375 12.792969-32.003906 23.992187zm0 0"/></svg>